<?xml version="1.0" standalone="no"?>
<!DOCTYPE svg PUBLIC "-//W3C//DTD SVG 20010904//EN"
 "http://www.w3.org/TR/2001/REC-SVG-20010904/DTD/svg10.dtd">
<svg version="1.0" xmlns="http://www.w3.org/2000/svg"
 width="707.000000pt" height="181.000000pt" viewBox="0 0 707.000000 181.000000"
 preserveAspectRatio="xMidYMid meet">
<metadata>
Created by potrace 1.16, written by Peter Selinger 2001-2019
</metadata>
<g transform="translate(0.000000,181.000000) scale(0.100000,-0.100000)"
fill="#000000" stroke="none">
<path d="M25 1755 l-25 -24 0 -831 0 -831 25 -24 24 -25 3471 0 3471 0 24 25
25 24 0 831 0 831 -25 24 -24 25 -3471 0 -3471 0 -24 -25z m1476 -329 c90 -28
164 -88 215 -173 31 -54 65 -184 58 -222 -5 -22 3 -43 36 -95 45 -71 46 -91 5
-106 -20 -7 -25 -16 -23 -38 3 -40 -8 -52 -52 -52 -68 0 -89 -48 -29 -69 33
-11 47 -37 30 -54 -6 -6 -11 -28 -11 -48 0 -29 -6 -43 -27 -59 -25 -20 -36
-22 -95 -17 -63 5 -69 4 -87 -19 -14 -18 -28 -24 -57 -24 -77 1 -366 49 -381
64 -3 3 0 39 6 79 15 93 4 146 -48 236 -60 102 -76 160 -76 276 0 89 3 105 27
151 30 57 108 132 164 159 20 9 57 21 83 25 61 12 204 4 262 -14z m3912 -278
c51 -65 73 -105 103 -193 22 -65 27 -99 28 -180 1 -117 -13 -183 -60 -280 -47
-98 -81 -135 -116 -128 -32 6 -39 42 -12 64 22 18 69 115 90 185 21 70 23 226
4 294 -16 61 -63 153 -100 198 -40 49 -40 82 -1 82 23 0 38 -10 64 -42z m-137
-110 c69 -83 105 -221 86 -340 -18 -117 -91 -236 -130 -212 -25 16 -26 40 -2
74 82 115 78 305 -10 427 -33 46 -35 54 -18 71 20 20 45 13 74 -20z m-828 -70
l3 -67 36 15 c78 33 169 -16 193 -104 36 -135 -88 -254 -202 -194 -30 16 -38
17 -38 6 0 -10 -12 -14 -39 -14 l-38 0 -7 53 c-8 72 -8 362 1 371 4 4 25 6 48
4 l40 -3 3 -67z m678 -45 c58 -58 71 -180 29 -264 -21 -40 -30 -50 -48 -47
-19 3 -22 8 -19 43 6 89 5 172 -3 212 -12 67 5 91 41 56z m-2971 -8 c20 -8 38
-21 41 -30 6 -14 11 -12 35 11 22 21 39 27 74 28 41 1 50 -3 76 -32 29 -32 29
-33 29 -157 l0 -125 -45 0 -45 0 0 105 c0 93 -2 105 -19 115 -28 14 -38 13
-61 -10 -15 -15 -20 -33 -20 -77 0 -32 -3 -75 -6 -95 -6 -36 -8 -38 -45 -38
l-39 0 0 94 c0 76 -3 98 -18 116 -14 17 -25 21 -44 17 -35 -9 -48 -46 -48
-142 l0 -85 -39 0 c-26 0 -41 5 -45 16 -3 9 -6 78 -6 155 l0 139 45 0 c33 0
45 -4 45 -15 0 -17 16 -20 25 -4 8 11 42 27 63 28 7 1 28 -6 47 -14z m508 -4
c29 -15 37 -16 37 -5 0 10 13 14 45 14 l45 0 0 -132 c0 -172 -2 -178 -51 -178
-28 0 -39 4 -39 15 0 11 -7 10 -35 -6 -76 -45 -179 5 -205 100 -36 135 87 251
203 192z m405 -7 c21 -14 42 -51 42 -75 0 -5 -19 -9 -43 -9 -30 0 -48 6 -60
20 -20 24 -36 25 -63 6 -17 -13 -17 -16 -4 -30 9 -9 37 -20 64 -25 69 -13 100
-39 104 -88 2 -30 -3 -45 -21 -65 -53 -58 -208 -43 -242 23 -8 15 -15 30 -15
34 0 3 22 5 49 5 35 0 51 -4 55 -16 4 -11 17 -14 43 -12 30 2 38 7 38 23 0 16
-13 23 -65 36 -73 20 -110 53 -110 99 0 38 37 79 80 90 44 11 118 3 148 -16z
m332 1 c100 -52 104 -216 7 -275 -113 -69 -257 4 -257 131 0 79 34 128 107
155 42 16 100 11 143 -11z m856 -6 c40 -38 54 -126 38 -243 -7 -45 -7 -46 -44
-46 l-38 0 -4 101 c-2 86 -6 103 -22 115 -27 19 -49 18 -77 -5 -22 -17 -24
-29 -27 -115 l-4 -96 -38 0 c-37 0 -37 1 -44 46 -3 26 -6 96 -6 155 l0 109 50
0 c36 0 50 -4 50 -14 0 -11 8 -10 38 6 45 23 95 18 128 -13z m709 2 c68 -39
97 -140 61 -209 -61 -118 -236 -119 -296 -3 -33 66 -21 150 30 196 50 45 143
53 205 16z m-1354 -76 l34 -96 34 96 33 95 49 0 49 0 -21 -52 c-12 -29 -43
-109 -69 -178 -83 -214 -75 -200 -120 -200 -22 0 -40 2 -40 4 0 2 9 29 21 59
l21 55 -40 104 c-22 56 -49 127 -61 156 l-21 52 49 0 48 0 34 -95z m319 -60
l0 -155 -39 0 c-35 0 -39 3 -45 31 -3 17 -6 87 -6 155 l0 124 45 0 45 0 0
-155z"/>
<path d="M4472 824 c-17 -12 -22 -25 -22 -59 0 -34 5 -47 22 -59 53 -38 118
-5 118 59 0 64 -65 97 -118 59z"/>
<path d="M2570 820 c-45 -45 -13 -130 49 -130 45 0 75 30 75 75 0 66 -78 101
-124 55z"/>
<path d="M3265 815 c-30 -30 -32 -64 -4 -99 41 -53 129 -18 129 51 0 32 -42
73 -75 73 -14 0 -37 -11 -50 -25z"/>
<path d="M4829 821 c-17 -13 -23 -29 -23 -56 0 -70 81 -102 123 -49 28 35 26
69 -4 99 -29 30 -64 32 -96 6z"/>
</g>
</svg>
